<svg width="27" height="27" viewBox="0 0 27 27" fill="none" xmlns="http://www.w3.org/2000/svg">
<path d="M8.50973 5.87695C9.21162 5.87695 9.86079 5.93187 10.4539 6.09444C11.0482 6.20318 11.5348 6.42067 11.9665 6.69198C12.3992 6.96439 12.7233 7.34444 12.9386 7.83324C13.155 8.32204 13.2637 8.92067 13.2637 9.57204C13.2637 10.3332 13.1011 10.9846 12.7233 11.4734C12.3992 11.9633 11.8588 12.3972 11.2107 12.7234C12.129 12.9958 12.8309 13.4846 13.2637 14.1371C13.6954 14.7884 13.9656 15.6035 13.9656 16.5272C13.9656 17.2884 13.803 17.9398 13.5328 18.4835C13.2637 19.0272 12.8309 19.516 12.3443 19.8423C11.8157 20.1919 11.2314 20.449 10.6165 20.6024C9.96844 20.766 9.32037 20.8748 8.6723 20.8748H1.43262V5.87695H8.50973ZM8.07696 11.9622C8.6712 11.9622 9.1578 11.7996 9.53566 11.5283C9.91351 11.257 10.0761 10.7671 10.0761 10.1696C10.0761 9.84335 10.0212 9.51821 9.91351 9.30073C9.80587 9.08324 9.6433 8.91958 9.42801 8.75701C9.21162 8.64827 8.99524 8.53952 8.72502 8.4857C8.45481 8.43078 8.1857 8.43078 7.86057 8.43078H4.72788V11.9633H8.07806L8.07696 11.9622ZM8.23952 18.3748C8.56356 18.3748 8.88759 18.3198 9.1578 18.266C9.42801 18.2111 9.69822 18.1035 9.91351 17.9398C10.1336 17.7808 10.3178 17.5772 10.4539 17.3423C10.5616 17.0709 10.6703 16.7447 10.6703 16.3647C10.6703 15.6035 10.4539 15.0597 10.0223 14.6797C9.58948 14.3535 8.99524 14.1909 8.29335 14.1909H4.72788V18.3759L8.23952 18.3748ZM18.6657 18.3198C19.0974 18.7548 19.7455 18.9723 20.6099 18.9723C21.2042 18.9723 21.7446 18.8097 22.1763 18.5384C22.609 18.2122 22.8793 17.886 22.9869 17.5608H25.6341C25.2013 18.8636 24.5533 19.7873 23.6899 20.386C22.8243 20.9286 21.7984 21.2548 20.5561 21.2548C19.7612 21.2573 18.9731 21.1097 18.2329 20.8199C17.5669 20.5701 16.973 20.1596 16.504 19.6248C16.0024 19.1245 15.6316 18.5085 15.4243 17.8311C15.1541 17.1248 15.0453 16.3647 15.0453 15.4947C15.0453 14.6797 15.1541 13.9196 15.4243 13.2122C15.6845 12.5316 16.0693 11.9054 16.559 11.3658C17.0523 10.8592 17.639 10.453 18.2868 10.1696C19.0081 9.87966 19.7787 9.73196 20.5561 9.7346C21.4744 9.7346 22.285 9.89827 22.9869 10.2783C23.6899 10.6584 24.2292 11.0933 24.6609 11.7458C25.0937 12.3433 25.4188 13.0496 25.6341 13.8108C25.7417 14.5709 25.7956 15.3321 25.7417 16.201H17.9089C17.9089 17.0709 18.2329 17.886 18.6657 18.3209V18.3198ZM22.0686 12.6147C21.6908 12.2346 21.0965 12.0171 20.3935 12.0171C19.908 12.0171 19.5291 12.127 19.205 12.2895C18.881 12.4521 18.6657 12.6696 18.4493 12.8871C18.2501 13.097 18.1182 13.3617 18.0704 13.6472C18.0166 13.9196 17.9627 14.1371 17.9627 14.3535H22.8243C22.7167 13.5384 22.4465 12.9958 22.0686 12.6147ZM17.3147 6.90947H23.3648V8.37696H17.3158V6.90947H17.3147Z" fill="#0D0D0D"/>
</svg>
