<svg width="24" height="24" viewBox="0 0 24 24" fill="none" xmlns="http://www.w3.org/2000/svg">
<path d="M6.699 5.42371C6.69875 5.93572 6.4951 6.42667 6.13287 6.78854C5.77064 7.1504 5.2795 7.35355 4.76748 7.3533C4.25547 7.35304 3.76452 7.1494 3.40265 6.78717C3.04079 6.42494 2.83763 5.93379 2.83789 5.42178C2.83815 4.90976 3.04179 4.41882 3.40402 4.05695C3.76625 3.69508 4.2574 3.49193 4.76941 3.49219C5.28143 3.49244 5.77237 3.69609 6.13424 4.05832C6.49611 4.42055 6.69926 4.91169 6.699 5.42371ZM6.75692 8.78288H2.89581V20.8682H6.75692V8.78288ZM12.8575 8.78288H9.01567V20.8682H12.8189V14.5263C12.8189 10.9934 17.4232 10.6652 17.4232 14.5263V20.8682H21.2361V13.2135C21.2361 7.25774 14.4212 7.47975 12.8189 10.4045L12.8575 8.78288Z" fill="#0D0D0D"/>
</svg>
