<svg width="210" height="48" viewBox="0 0 210 48" fill="none" xmlns="http://www.w3.org/2000/svg">
<path d="M65.4573 13.0758V24H64.9068L57.8634 16.19V24H56.4062V13.0758H56.9567L64.0001 20.9836V13.0758H65.4573Z" fill="#484A56"/>
<path d="M71.9502 15.6846C72.4143 15.6846 72.8839 15.7987 73.3588 16.027C73.8446 16.2444 74.2602 16.5487 74.6056 16.94V15.8476H75.9333V24H74.6056V22.6141C74.3249 23.0489 73.9417 23.4293 73.456 23.7554C72.981 24.0815 72.4359 24.2446 71.8206 24.2446C71.1298 24.2446 70.4983 24.0707 69.9262 23.7228C69.3541 23.3641 68.8953 22.8695 68.5499 22.2391C68.2153 21.6086 68.048 20.8804 68.048 20.0542C68.048 19.1521 68.2153 18.3749 68.5499 17.7227C68.8953 17.0705 69.3649 16.5705 69.9586 16.2226C70.5523 15.8639 71.2161 15.6846 71.9502 15.6846ZM72.193 16.989C71.6101 16.989 71.1136 17.1357 70.7034 17.4292C70.2932 17.7227 69.9748 18.1031 69.7481 18.5705C69.5322 19.027 69.4243 19.5216 69.4243 20.0542C69.4243 20.576 69.5322 21.0597 69.7481 21.5054C69.964 21.9402 70.2662 22.288 70.6548 22.5489C71.0542 22.8097 71.513 22.9402 72.0311 22.9402C72.5277 22.9402 72.9702 22.8097 73.3588 22.5489C73.7474 22.288 74.0551 21.9293 74.2818 21.4728C74.5084 21.0054 74.6164 20.4836 74.6056 19.9075L74.5894 18.3422C74.2548 17.9183 73.8932 17.5868 73.5046 17.3477C73.1268 17.1085 72.6896 16.989 72.193 16.989Z" fill="#484A56"/>
<path d="M82.0214 15.6846C82.4855 15.6846 82.9551 15.7987 83.43 16.027C83.9158 16.2444 84.3314 16.5487 84.6768 16.94V15.8476H86.0045V24H84.6768V22.6141C84.3961 23.0489 84.0129 23.4293 83.5272 23.7554C83.0522 24.0815 82.5071 24.2446 81.8918 24.2446C81.201 24.2446 80.5695 24.0707 79.9974 23.7228C79.4253 23.3641 78.9665 22.8695 78.6211 22.2391C78.2865 21.6086 78.1192 20.8804 78.1192 20.0542C78.1192 19.1521 78.2865 18.3749 78.6211 17.7227C78.9665 17.0705 79.4361 16.5705 80.0298 16.2226C80.6235 15.8639 81.2873 15.6846 82.0214 15.6846ZM82.2642 16.989C81.6813 16.989 81.1848 17.1357 80.7746 17.4292C80.3644 17.7227 80.046 18.1031 79.8193 18.5705C79.6034 19.027 79.4955 19.5216 79.4955 20.0542C79.4955 20.576 79.6034 21.0597 79.8193 21.5054C80.0352 21.9402 80.3374 22.288 80.726 22.5489C81.1254 22.8097 81.5842 22.9402 82.1023 22.9402C82.5989 22.9402 83.0414 22.8097 83.43 22.5489C83.8186 22.288 84.1263 21.9293 84.353 21.4728C84.5796 21.0054 84.6876 20.4836 84.6768 19.9075L84.6606 18.3422C84.326 17.9183 83.9644 17.5868 83.5758 17.3477C83.1979 17.1085 82.7608 16.989 82.2642 16.989Z" fill="#484A56"/>
<path d="M98.1968 13.0758L103.265 24H101.516L100.383 21.3912H95.2985L94.1489 24H92.4002L97.4682 13.0758H98.1968ZM97.8568 15.5541L95.8976 20.0053H99.7836L97.8568 15.5541Z" fill="#484A56"/>
<path d="M105.256 15.8476L108.09 21.8478L110.842 15.8476H112.429L106.471 27.9131H104.933L107.248 23.5109L103.67 15.8476H105.256Z" fill="#484A56"/>
<path d="M117.384 15.6846C118.215 15.6846 118.906 15.8585 119.456 16.2063C120.007 16.5542 120.417 17.027 120.687 17.6248C120.968 18.2227 121.108 18.8966 121.108 19.6466V20.4456H114.89C114.955 20.9021 115.112 21.3206 115.36 21.701C115.608 22.0815 115.932 22.3858 116.331 22.6141C116.731 22.8315 117.19 22.9402 117.708 22.9402C118.291 22.9402 118.836 22.7934 119.343 22.5C119.85 22.1956 120.277 21.8641 120.622 21.5054L120.606 22.9565C120.455 23.1413 120.228 23.3369 119.926 23.5435C119.635 23.7391 119.294 23.9022 118.906 24.0326C118.528 24.1739 118.129 24.2446 117.708 24.2446C116.887 24.2446 116.159 24.0489 115.522 23.6576C114.885 23.2663 114.383 22.75 114.016 22.1086C113.66 21.4565 113.482 20.7445 113.482 19.9727C113.482 19.201 113.649 18.489 113.984 17.8368C114.318 17.1846 114.777 16.6629 115.36 16.2715C115.954 15.8802 116.628 15.6846 117.384 15.6846ZM117.384 16.989C116.715 16.989 116.164 17.2172 115.732 17.6738C115.301 18.1194 115.031 18.6629 114.923 19.3042H119.796C119.742 18.7716 119.591 18.3368 119.343 17.9998C119.106 17.6629 118.814 17.4129 118.469 17.2498C118.123 17.0759 117.762 16.989 117.384 16.989Z" fill="#484A56"/>
<path d="M124.622 12.2606V24H123.294V12.2606H124.622Z" fill="#484A56"/>
<path d="M130.71 15.6846C131.541 15.6846 132.232 15.8585 132.782 16.2063C133.333 16.5542 133.743 17.027 134.013 17.6248C134.293 18.2227 134.434 18.8966 134.434 19.6466V20.4456H128.216C128.281 20.9021 128.437 21.3206 128.686 21.701C128.934 22.0815 129.258 22.3858 129.657 22.6141C130.057 22.8315 130.515 22.9402 131.033 22.9402C131.616 22.9402 132.161 22.7934 132.669 22.5C133.176 22.1956 133.602 21.8641 133.948 21.5054L133.932 22.9565C133.781 23.1413 133.554 23.3369 133.252 23.5435C132.96 23.7391 132.62 23.9022 132.232 24.0326C131.854 24.1739 131.454 24.2446 131.033 24.2446C130.213 24.2446 129.484 24.0489 128.848 23.6576C128.211 23.2663 127.709 22.75 127.342 22.1086C126.986 21.4565 126.807 20.7445 126.807 19.9727C126.807 19.201 126.975 18.489 127.309 17.8368C127.644 17.1846 128.103 16.6629 128.686 16.2715C129.279 15.8802 129.954 15.6846 130.71 15.6846ZM130.71 16.989C130.04 16.989 129.49 17.2172 129.058 17.6738C128.626 18.1194 128.356 18.6629 128.248 19.3042H133.122C133.068 18.7716 132.917 18.3368 132.669 17.9998C132.431 17.6629 132.14 17.4129 131.794 17.2498C131.449 17.0759 131.087 16.989 130.71 16.989Z" fill="#484A56"/>
<path d="M137.073 15.8476L139.906 21.8478L142.659 15.8476H144.246L138.287 27.9131H136.749L139.064 23.5109L135.486 15.8476H137.073Z" fill="#484A56"/>
<path d="M155.305 13.0758L160.373 24H158.624L157.491 21.3912H152.406L151.257 24H149.508L154.576 13.0758H155.305ZM154.965 15.5541L153.005 20.0053H156.891L154.965 15.5541Z" fill="#484A56"/>
<path d="M162.364 15.8476L165.198 21.8478L167.95 15.8476H169.537L163.579 27.9131H162.04L164.356 23.5109L160.777 15.8476H162.364Z" fill="#484A56"/>
<path d="M174.492 15.6846C175.323 15.6846 176.014 15.8585 176.564 16.2063C177.115 16.5542 177.525 17.027 177.795 17.6248C178.076 18.2227 178.216 18.8966 178.216 19.6466V20.4456H171.998C172.063 20.9021 172.22 21.3206 172.468 21.701C172.716 22.0815 173.04 22.3858 173.439 22.6141C173.839 22.8315 174.297 22.9402 174.816 22.9402C175.398 22.9402 175.944 22.7934 176.451 22.5C176.958 22.1956 177.385 21.8641 177.73 21.5054L177.714 22.9565C177.563 23.1413 177.336 23.3369 177.034 23.5435C176.742 23.7391 176.402 23.9022 176.014 24.0326C175.636 24.1739 175.237 24.2446 174.816 24.2446C173.995 24.2446 173.267 24.0489 172.63 23.6576C171.993 23.2663 171.491 22.75 171.124 22.1086C170.768 21.4565 170.59 20.7445 170.59 19.9727C170.59 19.201 170.757 18.489 171.092 17.8368C171.426 17.1846 171.885 16.6629 172.468 16.2715C173.061 15.8802 173.736 15.6846 174.492 15.6846ZM174.492 16.989C173.822 16.989 173.272 17.2172 172.84 17.6738C172.408 18.1194 172.139 18.6629 172.031 19.3042H176.904C176.85 18.7716 176.699 18.3368 176.451 17.9998C176.213 17.6629 175.922 17.4129 175.577 17.2498C175.231 17.0759 174.87 16.989 174.492 16.989Z" fill="#484A56"/>
<path d="M182.636 13.4997V15.8476H185.826C186.355 15.8476 186.792 15.6683 187.137 15.3096C187.483 14.94 187.79 14.3911 188.06 13.6628H188.352V15.8476H190.716V17.1031H188.352V21.8804C188.352 22.2173 188.438 22.4837 188.611 22.6793C188.784 22.875 189.048 22.9728 189.404 22.9728C189.728 22.9728 189.998 22.9348 190.214 22.8587C190.43 22.7717 190.619 22.6793 190.781 22.5815V23.6739C190.565 23.8478 190.333 23.9837 190.084 24.0815C189.847 24.1902 189.523 24.2446 189.113 24.2446C188.422 24.2446 187.898 24.038 187.542 23.625C187.197 23.2011 187.024 22.6413 187.024 21.9456V17.1031H182.636V21.8804C182.636 22.2173 182.723 22.4837 182.895 22.6793C183.068 22.875 183.332 22.9728 183.689 22.9728C184.012 22.9728 184.282 22.9348 184.498 22.8587C184.714 22.7717 184.903 22.6793 185.065 22.5815V23.6739C184.849 23.8478 184.617 23.9837 184.369 24.0815C184.131 24.1902 183.807 24.2446 183.397 24.2446C182.706 24.2446 182.183 24.038 181.827 23.625C181.481 23.2011 181.308 22.6413 181.308 21.9456V17.1031H179.754V16.7118C180.283 16.4726 180.726 16.0813 181.082 15.5378C181.438 14.9835 181.751 14.3041 182.021 13.4997H182.636Z" fill="#484A56"/>
<path d="M196.464 15.6846C197.295 15.6846 197.986 15.8585 198.536 16.2063C199.087 16.5542 199.497 17.027 199.767 17.6248C200.048 18.2227 200.188 18.8966 200.188 19.6466V20.4456H193.97C194.035 20.9021 194.192 21.3206 194.44 21.701C194.688 22.0815 195.012 22.3858 195.411 22.6141C195.811 22.8315 196.27 22.9402 196.788 22.9402C197.371 22.9402 197.916 22.7934 198.423 22.5C198.93 22.1956 199.357 21.8641 199.702 21.5054L199.686 22.9565C199.535 23.1413 199.308 23.3369 199.006 23.5435C198.714 23.7391 198.374 23.9022 197.986 24.0326C197.608 24.1739 197.209 24.2446 196.788 24.2446C195.967 24.2446 195.239 24.0489 194.602 23.6576C193.965 23.2663 193.463 22.75 193.096 22.1086C192.74 21.4565 192.562 20.7445 192.562 19.9727C192.562 19.201 192.729 18.489 193.064 17.8368C193.398 17.1846 193.857 16.6629 194.44 16.2715C195.034 15.8802 195.708 15.6846 196.464 15.6846ZM196.464 16.989C195.795 16.989 195.244 17.2172 194.812 17.6738C194.38 18.1194 194.111 18.6629 194.003 19.3042H198.876C198.822 18.7716 198.671 18.3368 198.423 17.9998C198.186 17.6629 197.894 17.4129 197.549 17.2498C197.203 17.0759 196.842 16.989 196.464 16.989Z" fill="#484A56"/>
<path d="M202.827 15.8476L205.661 21.8478L208.413 15.8476H210L204.041 27.9131H202.503L204.819 23.5109L201.24 15.8476H202.827Z" fill="#484A56"/>
<path d="M58.3187 38.2467C57.8384 38.2467 57.3946 38.1672 56.9873 38.008C56.58 37.8427 56.2274 37.6131 55.9295 37.3193C55.6316 37.0254 55.3976 36.6795 55.2273 36.2816C55.0632 35.8837 54.9811 35.449 54.9811 34.9777C54.9811 34.5063 55.0632 34.0716 55.2273 33.6737C55.3976 33.2758 55.6316 32.9299 55.9295 32.636C56.2335 32.3422 56.5891 32.1157 56.9964 31.9565C57.4038 31.7912 57.8476 31.7086 58.3278 31.7086C58.7899 31.7086 59.2245 31.7882 59.6319 31.9473C60.0392 32.1004 60.3827 32.333 60.6623 32.6452L60.2337 33.0768C59.9723 32.8074 59.6835 32.6146 59.3674 32.4983C59.0513 32.3759 58.7108 32.3146 58.3461 32.3146C57.9631 32.3146 57.6074 32.382 57.2791 32.5167C56.9508 32.6452 56.6651 32.8319 56.4219 33.0768C56.1788 33.3156 55.9873 33.5972 55.8474 33.9216C55.7137 34.24 55.6468 34.592 55.6468 34.9777C55.6468 35.3633 55.7137 35.7184 55.8474 36.0429C55.9873 36.3612 56.1788 36.6428 56.4219 36.8877C56.6651 37.1264 56.9508 37.3132 57.2791 37.4478C57.6074 37.5764 57.9631 37.6407 58.3461 37.6407C58.7108 37.6407 59.0513 37.5795 59.3674 37.457C59.6835 37.3346 59.9723 37.1387 60.2337 36.8693L60.6623 37.3009C60.3827 37.6131 60.0392 37.8488 59.6319 38.008C59.2245 38.1672 58.7868 38.2467 58.3187 38.2467Z" fill="#484A56"/>
<path d="M61.9641 38.1917V33.3707H62.5842V34.6838L62.5204 34.4542C62.6541 34.0869 62.879 33.8084 63.1952 33.6186C63.5113 33.4227 63.9034 33.3247 64.3715 33.3247V33.9584C64.3472 33.9584 64.3229 33.9584 64.2986 33.9584C64.2743 33.9522 64.2499 33.9492 64.2256 33.9492C63.721 33.9492 63.3259 34.1053 63.0401 34.4175C62.7544 34.7236 62.6115 35.1613 62.6115 35.7306V38.1917H61.9641Z" fill="#484A56"/>
<path d="M67.542 38.2376C67.0435 38.2376 66.6058 38.1335 66.2288 37.9253C65.8519 37.7111 65.5571 37.4203 65.3443 37.053C65.1315 36.6795 65.0251 36.2541 65.0251 35.7766C65.0251 35.2991 65.1254 34.8766 65.326 34.5093C65.5328 34.142 65.8124 33.8543 66.165 33.6461C66.5237 33.4319 66.9249 33.3247 67.3687 33.3247C67.8186 33.3247 68.2168 33.4288 68.5633 33.637C68.9159 33.839 69.1926 34.1267 69.3932 34.5001C69.5938 34.8675 69.6941 35.2929 69.6941 35.7766C69.6941 35.8072 69.6911 35.8408 69.685 35.8776C69.685 35.9082 69.685 35.9419 69.685 35.9786H65.5175V35.4919H69.3385L69.0831 35.6847C69.0831 35.3358 69.0071 35.0266 68.8551 34.7573C68.7092 34.4818 68.5086 34.2675 68.2533 34.1145C67.998 33.9614 67.7031 33.8849 67.3687 33.8849C67.0404 33.8849 66.7456 33.9614 66.4842 34.1145C66.2228 34.2675 66.0191 34.4818 65.8732 34.7573C65.7273 35.0328 65.6543 35.348 65.6543 35.7031V35.8041C65.6543 36.1714 65.7334 36.4959 65.8914 36.7775C66.0556 37.053 66.2805 37.2703 66.5662 37.4295C66.8581 37.5825 67.1894 37.659 67.5602 37.659C67.8521 37.659 68.1226 37.607 68.3718 37.5029C68.6272 37.3989 68.846 37.2397 69.0284 37.0254L69.3932 37.4478C69.1804 37.705 68.9129 37.9009 68.5907 38.0355C68.2746 38.1702 67.925 38.2376 67.542 38.2376Z" fill="#484A56"/>
<path d="M73.8786 38.1917V37.1264L73.8512 36.952V35.1705C73.8512 34.7603 73.7357 34.4451 73.5047 34.2247C73.2798 34.0043 72.9424 33.8941 72.4925 33.8941C72.1824 33.8941 71.8876 33.9461 71.6079 34.0502C71.3283 34.1543 71.0912 34.292 70.8966 34.4634L70.6048 33.9767C70.848 33.7686 71.1398 33.6094 71.4802 33.4992C71.8207 33.3829 72.1794 33.3247 72.5563 33.3247C73.1764 33.3247 73.6536 33.4809 73.988 33.7931C74.3285 34.0992 74.4987 34.5675 74.4987 35.198V38.1917H73.8786ZM72.228 38.2376C71.8693 38.2376 71.5562 38.1794 71.2887 38.0631C71.0273 37.9407 70.8267 37.7754 70.6869 37.5672C70.5471 37.353 70.4771 37.1081 70.4771 36.8326C70.4771 36.5816 70.5349 36.3551 70.6504 36.1531C70.772 35.9449 70.9665 35.7796 71.234 35.6572C71.5076 35.5286 71.8724 35.4643 72.3283 35.4643H73.9789V35.951H72.3466C71.8845 35.951 71.5623 36.0337 71.3799 36.199C71.2036 36.3643 71.1155 36.5693 71.1155 36.8142C71.1155 37.0897 71.2219 37.3101 71.4347 37.4754C71.6474 37.6407 71.9453 37.7233 72.3283 37.7233C72.6931 37.7233 73.0062 37.6407 73.2676 37.4754C73.5351 37.304 73.7296 37.0591 73.8512 36.7408L73.9971 37.1907C73.8755 37.5091 73.6628 37.7631 73.3588 37.9529C73.0609 38.1427 72.684 38.2376 72.228 38.2376Z" fill="#484A56"/>
<path d="M77.771 38.2376C77.3211 38.2376 76.9746 38.1151 76.7314 37.8703C76.4883 37.6254 76.3667 37.2795 76.3667 36.8326V32.3055H77.0141V36.7959C77.0141 37.0775 77.084 37.2948 77.2239 37.4478C77.3698 37.6009 77.5765 37.6774 77.844 37.6774C78.1297 37.6774 78.3668 37.5948 78.5553 37.4295L78.7832 37.8978C78.6556 38.0141 78.5005 38.0998 78.3182 38.1549C78.1419 38.21 77.9595 38.2376 77.771 38.2376ZM75.5095 33.9124V33.3707H78.4732V33.9124H75.5095Z" fill="#484A56"/>
<path d="M81.7442 38.2376C81.2821 38.2376 80.8657 38.1335 80.4949 37.9253C80.1301 37.7111 79.8413 37.4203 79.6285 37.053C79.4158 36.6795 79.3094 36.2541 79.3094 35.7766C79.3094 35.2929 79.4158 34.8675 79.6285 34.5001C79.8413 34.1328 80.1301 33.8451 80.4949 33.637C80.8596 33.4288 81.2761 33.3247 81.7442 33.3247C82.2184 33.3247 82.6379 33.4288 83.0026 33.637C83.3735 33.8451 83.6622 34.1328 83.8689 34.5001C84.0817 34.8675 84.1881 35.2929 84.1881 35.7766C84.1881 36.2541 84.0817 36.6795 83.8689 37.053C83.6622 37.4203 83.3735 37.7111 83.0026 37.9253C82.6318 38.1335 82.2123 38.2376 81.7442 38.2376ZM81.7442 37.659C82.0907 37.659 82.3977 37.5825 82.6652 37.4295C82.9327 37.2703 83.1424 37.0499 83.2944 36.7683C83.4525 36.4806 83.5315 36.15 83.5315 35.7766C83.5315 35.397 83.4525 35.0664 83.2944 34.7848C83.1424 34.5032 82.9327 34.2859 82.6652 34.1328C82.3977 33.9737 82.0938 33.8941 81.7533 33.8941C81.4129 33.8941 81.1089 33.9737 80.8414 34.1328C80.5739 34.2859 80.3611 34.5032 80.203 34.7848C80.045 35.0664 79.966 35.397 79.966 35.7766C79.966 36.15 80.045 36.4806 80.203 36.7683C80.3611 37.0499 80.5739 37.2703 80.8414 37.4295C81.1089 37.5825 81.4098 37.659 81.7442 37.659Z" fill="#484A56"/>
<path d="M85.5099 38.1917V33.3707H86.1301V34.6838L86.0662 34.4542C86.2 34.0869 86.4249 33.8084 86.741 33.6186C87.0572 33.4227 87.4493 33.3247 87.9174 33.3247V33.9584C87.8931 33.9584 87.8688 33.9584 87.8445 33.9584C87.8201 33.9522 87.7958 33.9492 87.7715 33.9492C87.2669 33.9492 86.8717 34.1053 86.586 34.4175C86.3003 34.7236 86.1574 35.1613 86.1574 35.7306V38.1917H85.5099Z" fill="#484A56"/>
<path d="M91.6206 38.2376C91.4868 38.2376 91.3713 38.1886 91.274 38.0906C91.1828 37.9927 91.1372 37.8733 91.1372 37.7325C91.1372 37.5856 91.1828 37.4662 91.274 37.3744C91.3713 37.2826 91.4868 37.2366 91.6206 37.2366C91.7543 37.2366 91.8668 37.2826 91.958 37.3744C92.0552 37.4662 92.1039 37.5856 92.1039 37.7325C92.1039 37.8733 92.0552 37.9927 91.958 38.0906C91.8668 38.1886 91.7543 38.2376 91.6206 38.2376Z" fill="#484A56"/>
<path d="M96.0126 38.1917V31.7637H96.5689L99.487 36.7775H99.1952L102.086 31.7637H102.642V38.1917H101.995V32.783H102.15L99.487 37.3744H99.1678L96.4868 32.783H96.6601V38.1917H96.0126Z" fill="#484A56"/>
<path d="M107.586 38.1917V37.1264L107.558 36.952V35.1705C107.558 34.7603 107.443 34.4451 107.212 34.2247C106.987 34.0043 106.649 33.8941 106.199 33.8941C105.889 33.8941 105.594 33.9461 105.315 34.0502C105.035 34.1543 104.798 34.292 104.604 34.4634L104.312 33.9767C104.555 33.7686 104.847 33.6094 105.187 33.4992C105.528 33.3829 105.886 33.3247 106.263 33.3247C106.883 33.3247 107.361 33.4809 107.695 33.7931C108.035 34.0992 108.206 34.5675 108.206 35.198V38.1917H107.586ZM105.935 38.2376C105.576 38.2376 105.263 38.1794 104.996 38.0631C104.734 37.9407 104.534 37.7754 104.394 37.5672C104.254 37.353 104.184 37.1081 104.184 36.8326C104.184 36.5816 104.242 36.3551 104.357 36.1531C104.479 35.9449 104.673 35.7796 104.941 35.6572C105.215 35.5286 105.579 35.4643 106.035 35.4643H107.686V35.951H106.053C105.591 35.951 105.269 36.0337 105.087 36.199C104.911 36.3643 104.822 36.5693 104.822 36.8142C104.822 37.0897 104.929 37.3101 105.142 37.4754C105.354 37.6407 105.652 37.7233 106.035 37.7233C106.4 37.7233 106.713 37.6407 106.975 37.4754C107.242 37.304 107.437 37.0591 107.558 36.7408L107.704 37.1907C107.582 37.5091 107.37 37.7631 107.066 37.9529C106.768 38.1427 106.391 38.2376 105.935 38.2376Z" fill="#484A56"/>
<path d="M112.408 33.3247C112.797 33.3247 113.138 33.4013 113.429 33.5543C113.727 33.7012 113.958 33.9278 114.122 34.2338C114.293 34.5399 114.378 34.9256 114.378 35.3909V38.1917H113.73V35.4552C113.73 34.947 113.603 34.5644 113.347 34.3073C113.098 34.0441 112.746 33.9124 112.29 33.9124C111.949 33.9124 111.651 33.9828 111.396 34.1237C111.147 34.2583 110.952 34.4573 110.812 34.7205C110.679 34.9777 110.612 35.2899 110.612 35.6572V38.1917H109.964V33.3707H110.584V34.693L110.484 34.4451C110.636 34.0961 110.879 33.8237 111.213 33.6278C111.548 33.4258 111.946 33.3247 112.408 33.3247Z" fill="#484A56"/>
<path d="M119.127 38.1917V37.1264L119.1 36.952V35.1705C119.1 34.7603 118.984 34.4451 118.753 34.2247C118.528 34.0043 118.191 33.8941 117.741 33.8941C117.431 33.8941 117.136 33.9461 116.856 34.0502C116.577 34.1543 116.339 34.292 116.145 34.4634L115.853 33.9767C116.096 33.7686 116.388 33.6094 116.729 33.4992C117.069 33.3829 117.428 33.3247 117.805 33.3247C118.425 33.3247 118.902 33.4809 119.236 33.7931C119.577 34.0992 119.747 34.5675 119.747 35.198V38.1917H119.127ZM117.476 38.2376C117.118 38.2376 116.805 38.1794 116.537 38.0631C116.276 37.9407 116.075 37.7754 115.935 37.5672C115.795 37.353 115.725 37.1081 115.725 36.8326C115.725 36.5816 115.783 36.3551 115.899 36.1531C116.02 35.9449 116.215 35.7796 116.482 35.6572C116.756 35.5286 117.121 35.4643 117.577 35.4643H119.227V35.951H117.595C117.133 35.951 116.811 36.0337 116.628 36.199C116.452 36.3643 116.364 36.5693 116.364 36.8142C116.364 37.0897 116.47 37.3101 116.683 37.4754C116.896 37.6407 117.194 37.7233 117.577 37.7233C117.941 37.7233 118.255 37.6407 118.516 37.4754C118.783 37.304 118.978 37.0591 119.1 36.7408L119.245 37.1907C119.124 37.5091 118.911 37.7631 118.607 37.9529C118.309 38.1427 117.932 38.2376 117.476 38.2376Z" fill="#484A56"/>
<path d="M123.548 40.019C123.111 40.019 122.691 39.9548 122.29 39.8262C121.889 39.6976 121.563 39.514 121.314 39.2752L121.642 38.7794C121.867 38.9814 122.144 39.1405 122.472 39.2569C122.807 39.3793 123.159 39.4405 123.53 39.4405C124.138 39.4405 124.585 39.2966 124.871 39.0089C125.156 38.7273 125.299 38.2865 125.299 37.6866V36.4836L125.39 35.6572L125.326 34.8307V33.3707H125.947V37.604C125.947 38.4365 125.743 39.0457 125.336 39.4313C124.934 39.8231 124.339 40.019 123.548 40.019ZM123.43 38.008C122.974 38.008 122.563 37.91 122.199 37.7141C121.834 37.5121 121.545 37.2336 121.332 36.8785C121.126 36.5234 121.022 36.1163 121.022 35.6572C121.022 35.198 121.126 34.794 121.332 34.4451C121.545 34.09 121.834 33.8145 122.199 33.6186C122.563 33.4227 122.974 33.3247 123.43 33.3247C123.855 33.3247 124.238 33.4135 124.579 33.591C124.919 33.7686 125.19 34.0318 125.39 34.3808C125.591 34.7297 125.691 35.1552 125.691 35.6572C125.691 36.1592 125.591 36.5847 125.39 36.9336C125.19 37.2826 124.919 37.5489 124.579 37.7325C124.238 37.9162 123.855 38.008 123.43 38.008ZM123.494 37.4295C123.846 37.4295 124.159 37.356 124.433 37.2091C124.706 37.056 124.922 36.8479 125.08 36.5847C125.238 36.3153 125.317 36.0061 125.317 35.6572C125.317 35.3082 125.238 35.0021 125.08 34.7389C124.922 34.4757 124.706 34.2706 124.433 34.1237C124.159 33.9706 123.846 33.8941 123.494 33.8941C123.147 33.8941 122.834 33.9706 122.554 34.1237C122.281 34.2706 122.065 34.4757 121.907 34.7389C121.755 35.0021 121.679 35.3082 121.679 35.6572C121.679 36.0061 121.755 36.3153 121.907 36.5847C122.065 36.8479 122.281 37.056 122.554 37.2091C122.834 37.356 123.147 37.4295 123.494 37.4295Z" fill="#484A56"/>
<path d="M129.782 38.2376C129.283 38.2376 128.846 38.1335 128.469 37.9253C128.092 37.7111 127.797 37.4203 127.584 37.053C127.371 36.6795 127.265 36.2541 127.265 35.7766C127.265 35.2991 127.365 34.8766 127.566 34.5093C127.773 34.142 128.052 33.8543 128.405 33.6461C128.764 33.4319 129.165 33.3247 129.609 33.3247C130.058 33.3247 130.457 33.4288 130.803 33.637C131.156 33.839 131.432 34.1267 131.633 34.5001C131.834 34.8675 131.934 35.2929 131.934 35.7766C131.934 35.8072 131.931 35.8408 131.925 35.8776C131.925 35.9082 131.925 35.9419 131.925 35.9786H127.757V35.4919H131.578L131.323 35.6847C131.323 35.3358 131.247 35.0266 131.095 34.7573C130.949 34.4818 130.748 34.2675 130.493 34.1145C130.238 33.9614 129.943 33.8849 129.609 33.8849C129.28 33.8849 128.985 33.9614 128.724 34.1145C128.463 34.2675 128.259 34.4818 128.113 34.7573C127.967 35.0328 127.894 35.348 127.894 35.7031V35.8041C127.894 36.1714 127.973 36.4959 128.131 36.7775C128.295 37.053 128.52 37.2703 128.806 37.4295C129.098 37.5825 129.429 37.659 129.8 37.659C130.092 37.659 130.362 37.607 130.612 37.5029C130.867 37.3989 131.086 37.2397 131.268 37.0254L131.633 37.4478C131.42 37.705 131.153 37.9009 130.831 38.0355C130.514 38.1702 130.165 38.2376 129.782 38.2376Z" fill="#484A56"/>
<path d="M133.252 38.1917V33.3707H133.872V34.6838L133.808 34.4542C133.942 34.0869 134.167 33.8084 134.483 33.6186C134.799 33.4227 135.191 33.3247 135.659 33.3247V33.9584C135.635 33.9584 135.611 33.9584 135.586 33.9584C135.562 33.9522 135.538 33.9492 135.513 33.9492C135.009 33.9492 134.614 34.1053 134.328 34.4175C134.042 34.7236 133.899 35.1613 133.899 35.7306V38.1917H133.252Z" fill="#484A56"/>
<path d="M136.887 38.2376C136.753 38.2376 136.637 38.1886 136.54 38.0906C136.449 37.9927 136.403 37.8733 136.403 37.7325C136.403 37.5856 136.449 37.4662 136.54 37.3744C136.637 37.2826 136.753 37.2366 136.887 37.2366C137.02 37.2366 137.133 37.2826 137.224 37.3744C137.321 37.4662 137.37 37.5856 137.37 37.7325C137.37 37.8733 137.321 37.9927 137.224 38.0906C137.133 38.1886 137.02 38.2376 136.887 38.2376Z" fill="#484A56"/>
<path d="M141.279 38.1917V31.7637H141.835L144.753 36.7775H144.461L147.352 31.7637H147.908V38.1917H147.261V32.783H147.416L144.753 37.3744H144.434L141.753 32.783H141.926V38.1917H141.279Z" fill="#484A56"/>
<path d="M152.852 38.1917V37.1264L152.824 36.952V35.1705C152.824 34.7603 152.709 34.4451 152.478 34.2247C152.253 34.0043 151.915 33.8941 151.466 33.8941C151.155 33.8941 150.861 33.9461 150.581 34.0502C150.301 34.1543 150.064 34.292 149.87 34.4634L149.578 33.9767C149.821 33.7686 150.113 33.6094 150.453 33.4992C150.794 33.3829 151.152 33.3247 151.529 33.3247C152.149 33.3247 152.627 33.4809 152.961 33.7931C153.302 34.0992 153.472 34.5675 153.472 35.198V38.1917H152.852ZM151.201 38.2376C150.842 38.2376 150.529 38.1794 150.262 38.0631C150 37.9407 149.8 37.7754 149.66 37.5672C149.52 37.353 149.45 37.1081 149.45 36.8326C149.45 36.5816 149.508 36.3551 149.623 36.1531C149.745 35.9449 149.94 35.7796 150.207 35.6572C150.481 35.5286 150.845 35.4643 151.301 35.4643H152.952V35.951H151.32C150.858 35.951 150.535 36.0337 150.353 36.199C150.177 36.3643 150.089 36.5693 150.089 36.8142C150.089 37.0897 150.195 37.3101 150.408 37.4754C150.62 37.6407 150.918 37.7233 151.301 37.7233C151.666 37.7233 151.979 37.6407 152.241 37.4754C152.508 37.304 152.703 37.0591 152.824 36.7408L152.97 37.1907C152.849 37.5091 152.636 37.7631 152.332 37.9529C152.034 38.1427 151.657 38.2376 151.201 38.2376Z" fill="#484A56"/>
<path d="M155.23 38.1917V33.3707H155.85V34.6838L155.787 34.4542C155.92 34.0869 156.145 33.8084 156.461 33.6186C156.778 33.4227 157.17 33.3247 157.638 33.3247V33.9584C157.613 33.9584 157.589 33.9584 157.565 33.9584C157.54 33.9522 157.516 33.9492 157.492 33.9492C156.987 33.9492 156.592 34.1053 156.306 34.4175C156.021 34.7236 155.878 35.1613 155.878 35.7306V38.1917H155.23Z" fill="#484A56"/>
<path d="M159.33 36.9428L159.348 36.1071L162.33 33.3707H163.123L161.017 35.4001L160.652 35.7123L159.33 36.9428ZM158.819 38.1917V31.378H159.467V38.1917H158.819ZM162.531 38.1917L160.534 35.6847L160.953 35.1797L163.324 38.1917H162.531Z" fill="#484A56"/>
<path d="M166.143 38.2376C165.644 38.2376 165.206 38.1335 164.829 37.9253C164.452 37.7111 164.158 37.4203 163.945 37.053C163.732 36.6795 163.626 36.2541 163.626 35.7766C163.626 35.2991 163.726 34.8766 163.927 34.5093C164.133 34.142 164.413 33.8543 164.766 33.6461C165.124 33.4319 165.525 33.3247 165.969 33.3247C166.419 33.3247 166.817 33.4288 167.164 33.637C167.516 33.839 167.793 34.1267 167.994 34.5001C168.194 34.8675 168.295 35.2929 168.295 35.7766C168.295 35.8072 168.292 35.8408 168.286 35.8776C168.286 35.9082 168.286 35.9419 168.286 35.9786H164.118V35.4919H167.939L167.684 35.6847C167.684 35.3358 167.608 35.0266 167.456 34.7573C167.31 34.4818 167.109 34.2675 166.854 34.1145C166.599 33.9614 166.304 33.8849 165.969 33.8849C165.641 33.8849 165.346 33.9614 165.085 34.1145C164.823 34.2675 164.62 34.4818 164.474 34.7573C164.328 35.0328 164.255 35.348 164.255 35.7031V35.8041C164.255 36.1714 164.334 36.4959 164.492 36.7775C164.656 37.053 164.881 37.2703 165.167 37.4295C165.459 37.5825 165.79 37.659 166.161 37.659C166.453 37.659 166.723 37.607 166.972 37.5029C167.228 37.3989 167.447 37.2397 167.629 37.0254L167.994 37.4478C167.781 37.705 167.513 37.9009 167.191 38.0355C166.875 38.1702 166.526 38.2376 166.143 38.2376Z" fill="#484A56"/>
<path d="M171.126 38.2376C170.676 38.2376 170.33 38.1151 170.087 37.8703C169.844 37.6254 169.722 37.2795 169.722 36.8326V32.3055H170.369V36.7959C170.369 37.0775 170.439 37.2948 170.579 37.4478C170.725 37.6009 170.932 37.6774 171.199 37.6774C171.485 37.6774 171.722 37.5948 171.911 37.4295L172.139 37.8978C172.011 38.0141 171.856 38.0998 171.673 38.1549C171.497 38.21 171.315 38.2376 171.126 38.2376ZM168.865 33.9124V33.3707H171.828V33.9124H168.865Z" fill="#484A56"/>
<path d="M175.182 38.2376C174.683 38.2376 174.245 38.1335 173.868 37.9253C173.491 37.7111 173.197 37.4203 172.984 37.053C172.771 36.6795 172.665 36.2541 172.665 35.7766C172.665 35.2991 172.765 34.8766 172.966 34.5093C173.172 34.142 173.452 33.8543 173.805 33.6461C174.163 33.4319 174.564 33.3247 175.008 33.3247C175.458 33.3247 175.856 33.4288 176.203 33.637C176.555 33.839 176.832 34.1267 177.033 34.5001C177.233 34.8675 177.334 35.2929 177.334 35.7766C177.334 35.8072 177.331 35.8408 177.325 35.8776C177.325 35.9082 177.325 35.9419 177.325 35.9786H173.157V35.4919H176.978L176.723 35.6847C176.723 35.3358 176.647 35.0266 176.495 34.7573C176.349 34.4818 176.148 34.2675 175.893 34.1145C175.637 33.9614 175.343 33.8849 175.008 33.8849C174.68 33.8849 174.385 33.9614 174.124 34.1145C173.862 34.2675 173.659 34.4818 173.513 34.7573C173.367 35.0328 173.294 35.348 173.294 35.7031V35.8041C173.294 36.1714 173.373 36.4959 173.531 36.7775C173.695 37.053 173.92 37.2703 174.206 37.4295C174.498 37.5825 174.829 37.659 175.2 37.659C175.492 37.659 175.762 37.607 176.011 37.5029C176.267 37.3989 176.486 37.2397 176.668 37.0254L177.033 37.4478C176.82 37.705 176.552 37.9009 176.23 38.0355C175.914 38.1702 175.565 38.2376 175.182 38.2376Z" fill="#484A56"/>
<path d="M178.652 38.1917V33.3707H179.272V34.6838L179.208 34.4542C179.342 34.0869 179.566 33.8084 179.883 33.6186C180.199 33.4227 180.591 33.3247 181.059 33.3247V33.9584C181.035 33.9584 181.01 33.9584 180.986 33.9584C180.962 33.9522 180.937 33.9492 180.913 33.9492C180.408 33.9492 180.013 34.1053 179.728 34.4175C179.442 34.7236 179.299 35.1613 179.299 35.7306V38.1917H178.652Z" fill="#484A56"/>
<path fill-rule="evenodd" clip-rule="evenodd" d="M23.8335 0C36.9963 0 47.667 10.7452 47.667 24C47.667 37.2548 36.9963 48 23.8335 48C10.6707 48 0 37.2548 0 24C0 10.7452 10.6706 0 23.8335 0ZM23.8335 0.923077C36.4901 0.923077 46.7503 11.255 46.7503 24C46.7503 36.745 36.4901 47.0769 23.8335 47.0769C11.1769 47.0769 0.916673 36.745 0.916673 24C0.916673 11.255 11.1769 0.923077 23.8335 0.923077ZM36.9391 19.6808C36.9827 23.9721 36.6165 27.9348 36.139 31.8948C36.0003 34.0215 35.8617 36.1484 35.7231 38.2757C35.6017 39.4731 36.1555 44.7735 34.6668 44.0121C34.1346 43.0098 34.3933 38.1277 34.5389 36.7288C34.923 31.0359 35.307 25.3425 35.6909 19.6486L34.2829 19.6164C32.1245 24.0262 30.4549 28.8954 28.5863 33.6673C28.2212 34.5994 27.3924 38.051 25.9939 37.6634C25.2426 37.4551 25.5121 34.6488 25.61 33.6995C25.802 29.8649 25.994 26.0299 26.1861 22.1945C25.8617 23.2083 24.6108 25.4471 24.8739 26.7384C24.9912 26.9856 25.1085 27.2327 25.226 27.4797L25.098 27.673C21.91 28.5578 25.9237 20.2558 26.0259 20.0353C26.0688 19.9492 26.1115 19.8633 26.1541 19.7774L26.1861 19.6164L24.6179 19.6486C23.7325 20.7011 22.847 21.7538 21.9616 22.8067C19.2854 26.0551 15.7638 29.6609 10.9204 30.6378C6.87931 31.4531 1.82644 29.9951 1.12746 26.8352C-0.157413 21.0269 12.6701 19.7489 17.8013 19.1651L23.7538 18.875C24.2978 18.1232 24.8419 17.3712 25.3859 16.6192C27.5145 13.5812 29.5575 10.394 31.4986 7.17667C31.9542 6.42149 33.3374 3.18844 34.3789 3.53503L34.4749 3.63171C34.6306 4.50465 33.6402 5.68584 33.3228 6.40322L27.6902 18.8429L33.4508 18.9073C34.185 17.2699 36.8356 15.4914 36.9391 19.004C38.1071 18.9858 40.05 18.8433 40.9075 19.294V19.713L40.8115 19.8096L36.9391 19.6808ZM29.4183 12.4297L25.098 18.9073L26.5701 18.7462C27.5194 16.6409 28.4688 14.5354 29.4183 12.4297ZM35.6589 18.9718C35.6163 18.6818 35.5736 18.3917 35.531 18.1017L35.467 18.0372C35.2111 18.3272 34.955 18.6173 34.6988 18.9074C35.0189 18.9288 35.339 18.9503 35.6589 18.9718ZM27.5302 19.5842C27.2635 24.8688 26.9967 30.154 26.7301 35.4397C28.064 33.6228 28.5539 30.8286 29.3863 28.5754C30.5339 25.4694 31.6223 22.3676 33.0347 19.5842H27.5302ZM21.8656 19.713C20.2335 19.8097 18.6013 19.9064 16.9691 20.0031C12.6219 20.5443 8.47953 21.0418 5.25582 22.6779C3.97871 23.3261 1.40652 24.6252 2.24752 26.8675C3.23719 29.5059 7.78032 30.7671 11.2725 29.7679C16.0144 28.4108 20.7137 23.4684 23.1778 19.713H21.8656Z" fill="#484A56"/>
</svg>
