<svg width="24" height="24" viewBox="0 0 24 24" fill="none" xmlns="http://www.w3.org/2000/svg">
<path d="M21.8469 6.38954C21.1037 6.72739 20.3025 6.9494 19.4723 7.05558C20.3218 6.54398 20.9782 5.73315 21.2871 4.75822C20.4859 5.24086 19.5978 5.57871 18.6615 5.77176C17.8989 4.94162 16.8275 4.45898 15.6112 4.45898C13.3428 4.45898 11.4895 6.31232 11.4895 8.60003C11.4895 8.92822 11.5281 9.24676 11.5957 9.546C8.15929 9.37225 5.09936 7.72162 3.06263 5.22155C2.70547 5.82968 2.50276 6.54398 2.50276 7.2969C2.50276 8.73517 3.22672 10.0093 4.34645 10.7333C3.6611 10.7333 3.02401 10.5402 2.46415 10.2507V10.2796C2.46415 12.2874 3.89277 13.967 5.78471 14.3434C5.17729 14.5097 4.53959 14.5328 3.92172 14.411C4.1839 15.2339 4.69736 15.9539 5.38993 16.4699C6.08249 16.9858 6.91934 17.2718 7.78283 17.2875C6.31912 18.4463 4.50475 19.0726 2.6379 19.0636C2.30971 19.0636 1.98151 19.0443 1.65332 19.0057C3.48735 20.1834 5.66888 20.8687 8.00485 20.8687C15.6112 20.8687 19.7909 14.5558 19.7909 9.08267C19.7909 8.89926 19.7909 8.72551 19.7812 8.54211C20.5921 7.96294 21.2871 7.22933 21.8469 6.38954Z" fill="#0D0D0D"/>
</svg>
